<?xml version="1.0" encoding="UTF-8"?>
<svg id="logosandtypes_com" data-name="logosandtypes com" xmlns="http://www.w3.org/2000/svg" viewBox="0 0 150 150">
  <defs>
    <style>
      .cls-1 {
        fill: #eadc00;
      }

      .cls-2 {
        fill: #f16522;
      }

      .cls-3 {
        fill: #808184;
      }

      .cls-4 {
        fill: #85c436;
      }

      .cls-5 {
        fill: none;
      }

      .cls-6 {
        fill: #01abd5;
      }
    </style>
  </defs>
  <path class="cls-5" d="M0,0H150V150H0V0Z"/>
  <path class="cls-6" d="M97.35,25.27H49.75c-2.09,0-3.98,1.71-3.98,3.98v15.74c0,2.09,1.71,3.98,3.98,3.98h11v43.25h7.78c2.09,0,3.98,1.71,3.98,3.98v15.74c0,2.09-1.71,3.98-3.98,3.98h-7.78v7.59c0,2.85,1.52,4.36,4.36,4.36h16.31c2.85,0,4.36-1.52,4.36-4.36v-23.71c0-2.85,1.52-4.36,4.36-4.36h7.02c25.99,0,36.61-11.19,36.61-35.09,.19-23.9-10.43-35.09-36.42-35.09Zm.76,45.14h-7.97c-2.85,0-4.36-1.52-4.36-4.36v-11.19c0-2.85,1.52-4.36,4.36-4.36h7.97c7.02,0,10.62,.95,10.62,9.86s-3.6,10.05-10.62,10.05Z"/>
  <path class="cls-4" d="M49.56,86.16c0,2.09-1.71,3.98-3.98,3.98h-15.74c-2.09,0-3.98-1.71-3.98-3.98v-15.74c0-2.09,1.71-3.98,3.98-3.98h15.74c2.09,0,3.98,1.71,3.98,3.98v15.74Z"/>
  <path class="cls-3" d="M34.95,54.86c0,1.71-1.33,3.03-3.03,3.03h-11.95c-1.71,0-3.03-1.33-3.03-3.03v-11.95c0-1.71,1.33-3.03,3.03-3.03h11.95c1.71,0,3.03,1.33,3.03,3.03v11.95Z"/>
  <path class="cls-1" d="M15.6,81.42c0,1.33-1.14,2.47-2.47,2.47H3.47c-1.33,0-2.47-1.14-2.47-2.47v-9.67c0-1.33,1.14-2.47,2.47-2.47H13.14c1.33,0,2.47,1.14,2.47,2.47v9.67Z"/>
  <path class="cls-2" d="M49.56,115.18c0,1.33-1.14,2.47-2.47,2.47h-9.67c-1.33,0-2.47-1.14-2.47-2.47v-9.67c0-1.33,1.14-2.47,2.47-2.47h9.67c1.33,0,2.47,1.14,2.47,2.47v9.67Z"/>
</svg>